<svg width="40" height="40" viewBox="0 0 40 40" fill="none" xmlns="http://www.w3.org/2000/svg">
  <rect width="40" height="40" rx="8" fill="#DC2626"/>
  <path d="M32 24.5C32 25.9 30.9 27 29.5 27C28.1 27 27 25.9 27 24.5C27 23.1 28.1 22 29.5 22C30.9 22 32 23.1 32 24.5Z" fill="white"/>
  <path d="M13 24.5C13 25.9 11.9 27 10.5 27C9.1 27 8 25.9 8 24.5C8 23.1 9.1 22 10.5 22C11.9 22 13 23.1 13 24.5Z" fill="white"/>
  <path d="M30 17L27 12H13L10 17L8 22H32L30 17Z" fill="white"/>
  <path d="M25 20H15V15H25V20Z" fill="#DC2626"/>
  <path d="M10.5 22C9.1 22 8 23.1 8 24.5C8 25.9 9.1 27 10.5 27C11.9 27 13 25.9 13 24.5C13 23.1 11.9 22 10.5 22ZM10.5 26C9.7 26 9 25.3 9 24.5C9 23.7 9.7 23 10.5 23C11.3 23 12 23.7 12 24.5C12 25.3 11.3 26 10.5 26Z" fill="#111827"/>
  <path d="M29.5 22C28.1 22 27 23.1 27 24.5C27 25.9 28.1 27 29.5 27C30.9 27 32 25.9 32 24.5C32 23.1 30.9 22 29.5 22ZM29.5 26C28.7 26 28 25.3 28 24.5C28 23.7 28.7 23 29.5 23C30.3 23 31 23.7 31 24.5C31 25.3 30.3 26 29.5 26Z" fill="#111827"/>
</svg>
